<svg width="205" height="281" viewBox="0 0 205 281" fill="none" xmlns="http://www.w3.org/2000/svg">
<g clip-path="url(#clip0)">
<path d="M88.0809 266.94L88.0749 266.93L88.0688 266.92L24.5888 160.99L24.4555 160.767L24.2998 160.56C11.7225 143.791 4.9477 123.383 4.99994 102.422L4.99995 102.416C5.03016 76.5872 15.3046 51.8252 33.5691 33.5625C51.833 15.3003 76.595 5.02839 102.423 5H103.182C121.175 5.13292 138.78 10.2492 154.042 19.7812C169.309 29.3163 181.634 42.8967 189.649 59.0142C197.663 75.1316 201.053 93.1551 199.442 111.083C197.83 129.011 191.281 146.141 180.522 160.571L180.371 160.773L180.241 160.99L116.761 266.92L116.755 266.929L116.75 266.939C115.277 269.421 113.181 271.476 110.67 272.899C108.158 274.321 105.319 275.063 102.432 275.05L102.41 280.05L102.388 275.05C99.5036 275.062 96.6657 274.321 94.156 272.898C91.6463 271.476 89.5521 269.422 88.0809 266.94Z" stroke="black" stroke-width="10"/>
<path d="M102.41 127.53C97.31 127.523 92.3327 125.966 88.1377 123.066C83.9427 120.165 80.7281 116.059 78.92 111.29H31C32.6617 124.661 38.0446 137.297 46.5357 147.759C55.0268 158.22 66.2849 166.088 79.028 170.465C91.7712 174.842 105.487 175.552 118.615 172.516C131.742 169.48 143.753 162.818 153.28 153.29C164.641 141.99 171.872 127.197 173.81 111.29H125.9C124.094 116.06 120.88 120.169 116.685 123.069C112.489 125.97 107.511 127.526 102.41 127.53V127.53Z" fill="#F4F3F3"/>
<path d="M102.41 118.84C111.484 118.84 118.84 111.484 118.84 102.41C118.84 93.3359 111.484 85.98 102.41 85.98C93.3359 85.98 85.98 93.3359 85.98 102.41C85.98 111.484 93.3359 118.84 102.41 118.84Z" fill="#F4F3F3"/>
<path d="M102.41 30.47C84.8668 30.4783 67.9303 36.8913 54.7813 48.5046C41.6324 60.1178 33.1758 76.1323 31 93.54H78.92C80.7189 88.7613 83.9319 84.6446 88.1306 81.7389C92.3292 78.8332 97.3139 77.2766 102.42 77.2766C107.526 77.2766 112.511 78.8332 116.709 81.7389C120.908 84.6446 124.121 88.7613 125.92 93.54H173.84C171.664 76.1323 163.208 60.1178 150.059 48.5046C136.91 36.8913 119.973 30.4783 102.43 30.47H102.41Z" fill="#ED1C24"/>
<path d="M102.41 21.78C86.4628 21.7816 70.8743 26.512 57.6156 35.3731C44.3569 44.2342 34.0236 56.8279 27.9224 71.5618C21.8212 86.2957 20.2262 102.508 23.3389 118.148C26.4517 133.789 34.1324 148.155 45.41 159.43C52.8333 167.19 61.732 173.389 71.5838 177.663C81.4356 181.937 92.0419 184.2 102.78 184.319C113.519 184.438 124.172 182.411 134.117 178.357C144.061 174.302 153.095 168.302 160.688 160.708C168.282 153.115 174.282 144.081 178.337 134.137C182.391 124.192 184.418 113.539 184.299 102.8C184.18 92.0619 181.917 81.4556 177.643 71.6038C173.369 61.752 167.17 52.8533 159.41 45.43C151.944 37.9152 143.063 31.9556 133.279 27.8961C123.495 23.8366 113.003 21.7578 102.41 21.78ZM153.29 153.28C143.756 162.792 131.746 169.439 118.623 172.466C105.501 175.494 91.7926 174.78 79.0554 170.406C66.3182 166.033 55.0629 158.175 46.5682 147.725C38.0735 137.275 32.6798 124.652 31 111.29H78.92C80.7189 116.069 83.9319 120.185 88.1306 123.091C92.3292 125.997 97.3139 127.553 102.42 127.553C107.526 127.553 112.511 125.997 116.709 123.091C120.908 120.185 124.121 116.069 125.92 111.29H173.84C171.894 127.196 164.657 141.985 153.29 153.28ZM86 102.41C86 99.16 86.9638 95.983 88.7696 93.2809C90.5754 90.5788 93.142 88.4729 96.1448 87.2297C99.1476 85.9864 102.452 85.6616 105.639 86.2964C108.826 86.9312 111.754 88.497 114.051 90.7957C116.349 93.0945 117.913 96.023 118.545 99.2108C119.178 102.399 118.852 105.702 117.606 108.704C116.361 111.706 114.254 114.272 111.551 116.076C108.847 117.88 105.67 118.842 102.42 118.84C98.065 118.835 93.8901 117.102 90.8116 114.021C87.7331 110.941 86.0026 106.765 86 102.41ZM125.91 93.54C124.111 88.7613 120.898 84.6446 116.699 81.7389C112.501 78.8332 107.516 77.2766 102.41 77.2766C97.3039 77.2766 92.3192 78.8332 88.1206 81.7389C83.9219 84.6446 80.7089 88.7613 78.91 93.54H31C33.2446 76.1888 41.7302 60.2487 54.8712 48.6982C68.0121 37.1476 84.9093 30.7772 102.405 30.7772C119.901 30.7772 136.798 37.1476 149.939 48.6982C163.08 60.2487 171.565 76.1888 173.81 93.54H125.91Z" fill="black"/>
</g>
<defs>
<clipPath id="clip0">
<rect width="204.83" height="280.05" fill="white"/>
</clipPath>
</defs>
</svg>
