<svg xmlns="http://www.w3.org/2000/svg" viewBox="0 0 201.53 236.4"><defs><style>.cls-1{fill:#58595b;}.cls-1,.cls-2,.cls-4,.cls-5{stroke:#231f20;stroke-miterlimit:10;}.cls-1,.cls-2,.cls-5{stroke-width:12px;}.cls-2{fill:#ec2027;}.cls-3,.cls-5{fill:#f4f3f3;}.cls-4{stroke-width:2px;}</style></defs><title>Asset 4</title><g id="Layer_2" data-name="Layer 2"><g id="Layer_1-2" data-name="Layer 1"><path class="cls-1" d="M10.19,92.87h0a247.62,247.62,0,0,0,181.15-1.06l.39-.15-19.08-40-69.05-38-75,36.83Z"/><path class="cls-2" d="M102,6A91.08,91.08,0,0,0,11.16,90.83h.08c10.85-24,38.34-43,66.05-50.56a.3.3,0,0,0,.23-.27,24.66,24.66,0,0,1,49,0,.33.33,0,0,0,.24.28C153.5,47.49,180.21,65.34,192,88c.17.33.67,3.15.63,2.79C188,44.86,149.21,6,102,6Z"/><circle class="cls-3" cx="100.97" cy="41.58" r="18.41"/><circle class="cls-4" cx="100.97" cy="41.58" r="13.02"/><circle class="cls-3" cx="100.97" cy="41.58" r="10.5"/><path class="cls-1" d="M10.12,143.5h0a143.92,143.92,0,0,1,181.71,0h0l-50.09,38.14s-49.32,14.8-50.3,13.81-41.1-25.32-41.1-25.32Z"/><path class="cls-5" d="M129.13,145.58a28.94,28.94,0,0,1-56.51,0H10a91.07,91.07,0,0,0,181.71,0Z"/></g></g></svg>