<svg xmlns="http://www.w3.org/2000/svg" viewBox="0 0 333.65 299.99"><defs><style>.cls-1{fill:#f4f3f3;}.cls-2{fill:#ed1c24;}</style></defs><title>Asset 1</title><g id="Layer_2" data-name="Layer 2"><g id="Layer_1-2" data-name="Layer 1"><path class="cls-1" d="M166.83,138.72a16,16,0,0,1-14.94-10.32H121.41a45.77,45.77,0,0,0,90.83,0H181.77A16,16,0,0,1,166.83,138.72Z"/><circle class="cls-1" cx="166.83" cy="122.75" r="10.45"/><path class="cls-2" d="M166.83,77a45.79,45.79,0,0,0-45.42,40.12h30.48a16,16,0,0,1,29.88,0h30.47A45.79,45.79,0,0,0,166.83,77Z"/><path d="M166.83,71.47a51.28,51.28,0,1,0,36.26,15A51,51,0,0,0,166.83,71.47Zm32.35,83.63a45.77,45.77,0,0,1-77.77-26.7h30.48a16,16,0,0,0,29.88,0h30.47A45.35,45.35,0,0,1,199.18,155.1Zm-42.8-32.35a10.45,10.45,0,1,1,10.45,10.45A10.46,10.46,0,0,1,156.38,122.75Zm25.39-5.64a16,16,0,0,0-29.88,0H121.41a45.77,45.77,0,0,1,90.83,0Z"/><path d="M239.63,178.47H94a19.68,19.68,0,0,0-19.66,19.66v61.8A19.68,19.68,0,0,0,94,279.59H239.63a19.68,19.68,0,0,0,19.66-19.66v-61.8A19.68,19.68,0,0,0,239.63,178.47Zm2.1,81.46a2.1,2.1,0,0,1-2.1,2.1H94a2.1,2.1,0,0,1-2.1-2.1v-61.8A2.1,2.1,0,0,1,94,196H239.63a2.1,2.1,0,0,1,2.1,2.1Z"/><path d="M85.86,135.77A8.78,8.78,0,0,0,94.64,127,72.19,72.19,0,1,1,239,127a8.78,8.78,0,0,0,17.56,0,89.75,89.75,0,0,0-179.49,0A8.78,8.78,0,0,0,85.86,135.77Z"/><path d="M292,159.16v-34a125.18,125.18,0,0,0-250.35,0v34A50.49,50.49,0,0,0,0,208.81v42.76a23.53,23.53,0,0,0,23.51,23.5H41.66A25.11,25.11,0,0,0,66.75,300H266.9A25.11,25.11,0,0,0,292,275.07h18.16a23.52,23.52,0,0,0,23.5-23.5V208.81A50.49,50.49,0,0,0,292,159.16ZM41.65,257.52H23.51a6,6,0,0,1-6-5.95V208.81a32.93,32.93,0,0,1,24.09-31.69ZM266.9,282.44H66.75a7.55,7.55,0,0,1-7.54-7.54V125.17a107.62,107.62,0,0,1,215.23,0V274.9A7.55,7.55,0,0,1,266.9,282.44Zm49.19-30.87a6,6,0,0,1-5.94,5.95H292v-80.4a32.93,32.93,0,0,1,24.09,31.69Z"/></g></g></svg>