<svg xmlns="http://www.w3.org/2000/svg" viewBox="0 0 194.92 232.4"><defs><style>.cls-1{fill:#58595b;}.cls-1,.cls-2,.cls-4,.cls-5{stroke:#231f20;stroke-miterlimit:10;}.cls-1,.cls-2,.cls-5{stroke-width:8px;}.cls-2{fill:#ec2027;}.cls-3{fill:#fff;}.cls-4{stroke-width:2px;}.cls-5{fill:#f4f3f3;}</style></defs><title>Asset 2</title><g id="Layer_2" data-name="Layer 2"><g id="Layer_1-2" data-name="Layer 1"><path class="cls-1" d="M6.82,90.87h0A247.62,247.62,0,0,0,188,89.81l.39-.15-19.09-40-69-38-75,36.83Z"/><path class="cls-2" d="M98.65,4A91.08,91.08,0,0,0,7.79,88.83h.08c10.84-24,38.34-43,66.05-50.56a.31.31,0,0,0,.23-.27,24.66,24.66,0,0,1,49,0,.34.34,0,0,0,.23.28c26.76,7.23,53.47,25.08,65.25,47.78.17.33.66,3.15.63,2.79C184.63,42.86,145.83,4,98.65,4Z"/><circle class="cls-3" cx="97.6" cy="39.58" r="18.41"/><circle class="cls-4" cx="97.6" cy="39.58" r="13.02"/><circle class="cls-3" cx="97.59" cy="39.58" r="11.61"/><path class="cls-1" d="M6.74,141.5h0a143.94,143.94,0,0,1,181.72,0h0l-50.09,38.14s-49.32,14.8-50.3,13.81S47,168.13,47,168.13Z"/><path class="cls-5" d="M125.76,143.58a28.94,28.94,0,0,1-56.51,0H6.65a91.07,91.07,0,0,0,181.71,0Z"/></g></g></svg>