<?xml version="1.0" standalone="no"?>
<!DOCTYPE svg PUBLIC "-//W3C//DTD SVG 20010904//EN"
 "http://www.w3.org/TR/2001/REC-SVG-20010904/DTD/svg10.dtd">
<svg version="1.0" xmlns="http://www.w3.org/2000/svg"
 width="700.000000pt" height="700.000000pt" viewBox="0 0 700.000000 700.000000"
 preserveAspectRatio="xMidYMid meet">
<metadata>
Created by potrace 1.11, written by Peter Selinger 2001-2013
</metadata>
<g transform="translate(0.000000,700.000000) scale(0.100000,-0.100000)"
fill="#000000" stroke="none">
<path d="M3278 6995 c-1 -1 -41 -5 -88 -9 -87 -7 -105 -9 -225 -27 -116 -18
-122 -19 -192 -35 -316 -71 -528 -144 -799 -274 -476 -230 -928 -596 -1244
-1010 -19 -25 -38 -46 -42 -48 -5 -2 -8 -8 -8 -13 0 -5 -15 -29 -34 -53 -99
-130 -256 -404 -336 -586 -23 -52 -46 -104 -51 -115 -47 -102 -149 -428 -175
-560 -2 -11 -10 -54 -19 -95 -29 -147 -35 -194 -52 -370 -15 -163 -8 -592 12
-711 2 -13 6 -46 9 -74 21 -182 109 -547 165 -680 5 -11 25 -65 46 -120 64
-169 223 -481 314 -615 294 -432 601 -744 991 -1004 331 -222 716 -396 1060
-480 190 -47 281 -66 395 -81 22 -2 56 -7 75 -10 186 -26 693 -27 837 -1 20 4
89 14 143 21 19 3 46 7 60 10 14 3 41 8 60 11 71 12 309 76 430 116 210 68
576 235 659 299 13 11 28 19 33 19 5 0 14 5 21 10 7 6 67 47 134 91 235 156
493 382 665 583 34 39 64 73 68 76 18 13 182 238 245 335 219 336 406 779 481
1140 16 79 54 301 59 350 4 33 9 71 11 85 9 47 11 525 3 605 -15 165 -21 220
-24 225 -2 3 -6 30 -10 60 -9 75 -69 337 -98 435 -103 338 -235 623 -425 915
-62 96 -208 295 -247 336 -5 6 -40 45 -76 85 -504 561 -1169 947 -1884 1094
-44 9 -89 19 -100 21 -11 2 -38 6 -60 9 -22 3 -51 7 -65 10 -13 2 -52 7 -86
11 -33 3 -74 8 -90 10 -32 5 -540 14 -546 9z"/>
</g>
</svg>
